<svg id="Layer_1" data-name="Layer 1" xmlns="http://www.w3.org/2000/svg" viewBox="0 0 1080 1080"><defs><style>.cls-1{fill:#5e1;}</style></defs><path class="cls-1" d="M527.94,271.4c120.89,1.65,227.11,12.49,329.38,48.57,38.47,13.57,75.33,30.66,106.91,57.26,17.18,14.48,31.58,31.17,38.19,53.15,10.49,34.82-8.25,58.83-31.35,80.45-34.81,32.58-77.59,51.33-121.56,67.62-82.26,30.47-167.66,45.77-255,50-118.85,5.77-235.73-5.88-348.88-45-48.5-16.74-95.7-36.24-134.47-71.34A158.21,158.21,0,0,1,93,492.9c-25.14-32-22.49-67.5,6.57-99.13,32.31-35.17,73.94-55.1,117.52-71.42,71-26.58,145.07-39.59,220.34-45.86C471.9,273.62,506.56,272.56,527.94,271.4Zm41.38,300.08c.12.86.23,1.72.35,2.59,49.07-6,98.4-10.49,147.15-18.45,51.74-8.46,102.16-22.78,147.61-50.19,27.5-16.58,51.05-36.94,55.19-71.79,1.46-12.34-4.27-20.92-14.76-22.24-10.89-1.36-19.05,4.77-20.39,17.18-1.46,13.4-7.7,24.1-17.91,31.59C853,470.09,839,479.94,823.85,486.94c-63,29.13-130.47,39.83-198.88,45.48-27.65,2.28-55.49,2.26-83.22,3.67C529.1,536.73,522.35,544,523,555c.58,10.38,7.48,16.24,19.78,16.49C551.6,571.62,560.46,571.48,569.32,571.48Z"/><path class="cls-1" d="M1004.9,507.77c0,50.4,1.08,97.51-.42,144.53-.86,27.1-19.81,45.09-40,60.47-40.77,31.05-88.15,48.07-136.92,61.18-116.29,31.26-235,38.57-354.71,32.89-82.72-3.93-164.4-15.12-243.7-39.92C189.47,754.5,151.1,739,117.41,713.77,89.71,693,73,667.54,74.72,630.89c1.71-36.17.36-72.49.39-108.74,0-3.84.32-7.69.54-12.57C145,585.31,236.93,610.72,331.13,628.41,478,656,625.29,654.24,771.87,624.21c55.8-11.43,109.82-28.57,160-56.12C959.2,553.12,983.86,534.73,1004.9,507.77Z"/></svg>