<svg id="Layer_1" data-name="Layer 1" xmlns="http://www.w3.org/2000/svg" viewBox="0 0 1080 1080"><defs><style>.cls-1{fill:#5e1;}</style></defs><path class="cls-1" d="M58.9,630c8-128.67,53.61-240,154.26-325,32.62-27.54,70.21-45.61,114-48.13,20.75-1.2,40.22,3.58,59.2,11.23,102.5,41.3,205.2,41.66,307.57.15,58-23.5,109.53-8.56,158.06,24.39,54,36.7,92,87.32,120.82,145.17,32.22,64.66,50.16,132.84,48.17,205.45-1.06,38.76-8.45,76.35-27.81,110.55-35.33,62.4-98.06,84.59-165.22,59.2-30.74-11.62-57.17-29.9-81.83-51.19-45.51-39.27-97.65-64.58-157.42-73C496,675.77,412.94,698.5,340.38,757.71,315.5,778,290.62,798,260.48,810.15c-83.26,33.47-158.25-1.63-185.92-87.3a281.18,281.18,0,0,1-10.24-41.27C61.59,664.79,60.67,647.71,58.9,630Zm301-169.41c-.25-5-.45-7.77-.51-10.57-.32-13.85,1-27.95-1.24-41.49-4-24.45-27.54-41.27-52.1-39.26a49.05,49.05,0,0,0-45.14,47.13c-.52,14.11-.1,28.24-.1,43.73-12.9,0-24.57-.56-36.16.18-8.73.56-18,1.3-25.91,4.56-20.95,8.59-32.25,31-28.24,53.07,4.23,23.18,22.81,39.76,46.72,40.78,14.1.6,28.24.11,43.53.11,0,15-.18,28.81,0,42.57.24,15.08,6.33,27.57,18.06,37,15.53,12.54,33,14.86,51,7S358.11,623,359,603.09c.64-14.41.13-28.87.13-44.11,11.16,0,20.73.32,30.26-.09,8.83-.38,18-.29,26.36-2.61,21.83-6,36.73-28.6,34.57-50.43-2.43-24.66-20.76-43.64-44.79-45.07C390.72,459.9,375.81,460.62,359.85,460.62Zm550.64,47.69c-.1-27.36-22.59-49.68-49.68-49.31-26.72.37-48.75,22.55-48.88,49.21a49.4,49.4,0,0,0,49.43,49.49C889.18,557.73,910.59,536.2,910.49,508.31ZM722,598.61a49.19,49.19,0,0,0,48.57,50.12c27,.29,49.53-21.87,49.91-49.08.37-26.65-21.4-48.94-48.19-49.36C744.73,549.87,722.39,571.33,722,598.61Zm49.36-131A49.26,49.26,0,1,0,722,418.36,48.95,48.95,0,0,0,771.4,467.64ZM679.79,557.7c27.25.34,49.33-21.46,49.75-49.1C730,482.23,708,459.7,681.17,459s-49.88,21.73-50.46,48.77S652.43,557.35,679.79,557.7Z"/></svg>