<svg id="Layer_1" data-name="Layer 1" xmlns="http://www.w3.org/2000/svg" viewBox="0 0 1080 1080"><defs><style>.cls-1{fill:#5e1;}</style></defs><path class="cls-1" d="M702.49,101C780.29,132.8,849,181.18,902.55,246.66c-4.28,7.45-8.95,13.17-11.09,19.72q-24.83,76-48.63,152.37c-2.63,8.45-7.11,12.81-15.3,16Q761.62,460,696.18,486.55c-7.26,2.93-12.53,3-19.27-1.9q-58.77-42.57-118.31-84.07c-6.07-4.25-8.62-8.66-8.57-16.26.36-51.74,0-103.48.53-155.21.06-5.12,3.63-11.9,7.76-15,42.62-32.14,85.81-63.54,128.53-95.56C692.62,114.22,696.68,107.61,702.49,101Z"/><path class="cls-1" d="M173.13,247.24c39.65-55.39,145-131.61,204.92-146.78-4.33,11.31,2.68,16.23,10.47,21.72,43,30.27,85.59,61.06,128.55,91.37,6.09,4.29,8.49,8.82,8.44,16.37q-.53,77,0,154c0,7.45-2,12.08-8.26,16.43-40,28-79.57,56.58-119.71,84.36-4.11,2.85-11.86,3.71-16.56,1.92q-67.74-25.83-134.86-53.32c-5.16-2.12-10.54-8.07-12.31-13.4C216.49,367.74,200,315.25,183,263,181.31,257.92,177.23,253.66,173.13,247.24Z"/><path class="cls-1" d="M927.64,795.79c-7.62-2.52-13-5.84-18.47-5.88q-81.36-.58-162.73-.08c-7.77,0-12.94-2-18-8.3q-39.35-49.46-79.7-98.1c-4.48-5.42-5.47-10-3.15-16.8,16.14-47.3,31.6-94.84,47.92-142.08a24,24,0,0,1,11.71-12.72c43.83-19.33,88-37.81,132-56.95,6.64-2.89,11.13-2.14,16.82,2.12,43.46,32.42,87.18,64.49,130.82,96.67,6.22,4.59,12,11.9,21.59-.42C1002.29,645.15,976.23,725.44,927.64,795.79Z"/><path class="cls-1" d="M73.8,561.25c5.85-2.38,11-3.4,14.9-6.22q66.17-48.36,131.86-97.37c6.53-4.89,11.54-5.55,19-2.34,44.43,19,89.2,37.21,133.58,56.31,4.92,2.12,10.26,7.45,11.88,12.43q23.15,71.3,44.63,143.13c1.42,4.75-.42,12.29-3.58,16.29q-39.18,49.57-79.78,98c-3.6,4.3-10.83,7.77-16.42,7.83-54.24.58-108.49.2-162.73.58-5.73,0-11.44,3.25-18.66,5.45C109.18,745.51,71.23,627,73.8,561.25Z"/><path class="cls-1" d="M662.29,987.92c-82.55,26.39-166.47,25.66-248.4,0,.39-6.32,2.18-11.73.78-16.12-15.95-50-32-100-49-149.61-3.76-11-2-18.22,5-26.85,25.77-31.74,50.94-64,76-96.27,5-6.5,10.26-9.45,18.77-9.38,48.4.42,96.82-.09,145.21.59,6,.08,13.66,3.84,17.54,8.43,28,33.14,55.06,67.07,82.86,100.38,5.22,6.24,6.05,11.42,3.51,19q-25.52,76.45-50.1,153.2C663,975.83,663.16,980.89,662.29,987.92Z"/><path class="cls-1" d="M539.58,415.6C581,446.69,621.78,477.1,662.2,508c2.51,1.92,4.09,8,3.08,11.14C650.7,565.17,635.48,611,620.79,657c-2,6.42-5.26,8.25-11.64,8.23q-71.35-.33-142.71,0c-6.33,0-9.59-1.74-11.65-8.2-14.68-46-29.94-91.86-44.45-137.94-1-3.3,1.25-9.72,4.1-11.84C455.61,476.68,497.13,446.57,539.58,415.6Z"/><path class="cls-1" d="M901.48,814.49c6.3,9.47,4.23,16.22-2.38,24C846.82,900.3,782.44,945,707.69,975.15c-4.09,1.65-10.48.55-14.44-1.68-1.91-1.08-1.82-8.14-.66-11.87q21.48-69.2,43.84-138.09c1.19-3.64,6.13-8.6,9.37-8.64C797.89,814.33,850,814.49,901.48,814.49Z"/><path class="cls-1" d="M1006.53,516.67c-1.06,1.71-2.73,7.47-6.42,9.41-3,1.58-9.28-.19-12.6-2.58-38.61-27.71-76.81-56-115.46-83.66-6.62-4.74-7.77-8.9-5.24-16.43,14.82-44.21,29-88.62,43.77-132.86,1.25-3.76,4.76-9.57,7.14-9.52,4,.07,9.2,3.17,11.61,6.6,42.67,60.61,66.11,128.43,74.53,201.75C1004.77,497.25,1005.41,505.14,1006.53,516.67Z"/><path class="cls-1" d="M257.15,814.48c23.36,0,46.73.31,70.07-.18,7.24-.16,10.24,2.48,12.29,9.05,14.5,46.5,29.43,92.87,43.85,139.39,1.16,3.75,1.09,9.87-1.17,12.08-2.05,2-8.33,1.41-11.93-.06-73.84-30-137.67-74.21-189.28-135.38-2.15-2.55-4.61-5-6.21-7.83-4.57-8.24.4-16.95,9.81-17C208.77,814.37,233,814.48,257.15,814.48Z"/><path class="cls-1" d="M536.16,72.56c42.81.24,82.38,5.5,121.14,16.14,4.8,1.32,8.62,6.23,12.89,9.48-2.81,3.61-5,8.16-8.54,10.71C624,135.71,585.9,162,548.28,189c-6.5,4.66-10.79,4.78-17.34.09-38-27.17-76.32-53.77-114.36-80.82-3.22-2.28-7.88-7.94-7.07-9.44,2.19-4.06,6.48-8.4,10.8-9.67C458.93,77.77,498.53,72.8,536.16,72.56Z"/><path class="cls-1" d="M77.93,531.18c-2-6.78-4.68-11.53-4.44-16.12,4.29-81.16,27.69-156.39,71.44-225,2.69-4.21,8.41-6.48,12.72-9.65,2.8,4.08,6.72,7.79,8.22,12.31,14.47,43.48,28.51,87.1,42.75,130.66,1.85,5.66,3.65,10.21-3,15C163.93,468.23,122.6,498.61,77.93,531.18Z"/></svg>