<svg id="Layer_1" data-name="Layer 1" xmlns="http://www.w3.org/2000/svg" viewBox="0 0 1080 1080"><defs><style>.cls-1{fill:#5e1;}</style></defs><path class="cls-1" d="M553.08,71.42c118.41,4.37,220.28,46.91,308.28,127.15-83.58,94.64-146.5,198.66-155.85,328.27H553.08Z"/><path class="cls-1" d="M553,552.63H705c2.75,132.4,66,236.91,153,330-56.79,67-207.51,128.65-305,124.9Z"/><path class="cls-1" d="M227.85,189.9c86.25-74.75,185-114.41,298.91-118.48V526.64H391.69C382,393.36,315.74,287,227.85,189.9Z"/><path class="cls-1" d="M392.23,552.83h134.5v453.82c-67.52,13.8-228.6-48.68-296-115.28C321.86,796.63,388.85,690,392.23,552.83Z"/><path class="cls-1" d="M367.59,553c-3.8,130.85-68,231.34-154.57,321.17C138.88,818.72,63.55,647.1,72.16,553Z"/><path class="cls-1" d="M70.92,526.77c5.71-124.47,51.33-230.35,138.9-319.86C293.42,298.73,356.6,399.17,367,526.77Z"/><path class="cls-1" d="M875.4,865.06C793.06,777,733,678.81,729.67,552.88H1006.8C1023.64,622.61,944,812.6,875.4,865.06Z"/><path class="cls-1" d="M730.31,526.67c9.48-122.5,68.87-220.21,148.44-310.54,82,87.86,124.55,190.8,130,310.54Z"/></svg>