<svg id="Layer_1" data-name="Layer 1" xmlns="http://www.w3.org/2000/svg" viewBox="0 0 1080 1080"><defs><style>.cls-1{fill:#5e1;}</style></defs><path class="cls-1" d="M793.35,435.76H746.66v18.16c0,75.31.4,150.62-.25,225.92-.4,45.33-35.24,82.39-81.13,88.43-41.95,5.52-84.8-22.06-97.17-63.72-3.36-11.29-4.57-23.59-4.64-35.45-.41-71.48-.21-143-.21-214.46V436H516.85V454c0,74.21.26,148.43-.12,222.64-.21,41-25.92,75.57-64,87.78-36.67,11.76-77.07-1.15-100.81-32.36-13.79-18.11-18.75-38.8-18.67-61.35.28-72,.11-144.07.11-216.1V436H286.69v18.12c0,66.58.27,133.16-.1,199.73-.27,50.14-25.75,84.66-70,96.35-53.16,14-110-25.16-112.07-80.08-2.24-58.86-1.06-117.84-1.18-176.77-.12-62.76-.48-125.52.14-188.27.53-53.6,35.79-92.54,85.69-95.6,31-1.91,57.06,9.27,76,33.67,7.6,9.77,15.15,13.88,27.23,13,13-1,26.07-.22,39.88-.22,1.56-5.35,3-9.88,4.2-14.48A91.31,91.31,0,0,1,425.58,173c41.74.19,78.64,28.73,87.75,69.75,2.53,11.39,7.49,14.44,17.63,13.23a19.68,19.68,0,0,1,4.91,0c17.92,2.55,28.32-1.23,34.26-22.23,11.23-39.65,49.19-62.66,90.76-60.55,38.74,2,73.22,29.68,82.16,68.25,2.89,12.49,8.43,16.22,19.87,14.52a12.78,12.78,0,0,1,3.27,0c17.59,2.14,28.08-.62,34.12-22.21,11.81-42.27,55.73-66.41,98.88-59.89,42.24,6.39,75.59,41.61,76.66,85.2,1.55,62.72.8,125.49.86,188.24.06,77.49.5,155-.31,232.47-.45,42.8-29.89,77.21-71.23,86.54-40.24,9.08-82.22-9.16-100.23-46.81-7.25-15.14-10.82-33.37-11.1-50.29-1.19-70.92-.5-141.87-.49-212.81Z"/><path class="cls-1" d="M964.54,790.88C981.8,846.65,940,904.66,881.76,906.32c-55.1,1.57-110.27.57-165.41.57-39.31,0-78.67,1.09-117.91-.65-58.6-2.59-99.46-62.63-80.78-118.14,4-11.79,13.21-21.8,21.22-34.55,30.62,39.59,67.88,61.53,116,61.6s85.6-21.73,115.33-60.3c23.67,30.83,52.7,51.36,90.5,58.18C897.93,819.76,932,811.4,964.54,790.88Z"/></svg>