<svg id="Layer_1" data-name="Layer 1" xmlns="http://www.w3.org/2000/svg" viewBox="0 0 1080 1080"><defs><style>.cls-1{fill:#5e1;}</style></defs><path class="cls-1" d="M902.45,504.1c21,24.37,39.55,50.34,39.76,84.44.15,25-10.25,44-34,54.54a224.32,224.32,0,0,1-73.88,19.27c-25.13,2-50.31,3.46-75.45,5.38a145.3,145.3,0,0,0-18.36,3c-1.73.36-3.17,2.12-4.74,3.24,1.22,1.68,2.07,4,3.71,4.92a103.8,103.8,0,0,0,15.39,7.07c44.57,15.33,89.22,30.4,133.78,45.72,38.87,13.37,77.66,27,116.47,40.49a11.32,11.32,0,0,1,5.42,3.42l-31.35-9.41q-205-61.3-410-122.63Q392.54,590.62,215.92,537.59q-93.43-28-186.88-56c-2.55-.77-6.42-.7-4.19-6l37.54,6.52Q173.1,501.34,283.8,520.52c57.22,10,114.37,20.39,171.6,30.34,21.3,3.7,37.83,15.76,53.83,29,6,5,12,10.19,17.91,15.32a111,111,0,0,0,39.26,22.14c81.11,26,164,39.34,249.3,36.37,24.89-.87,49.62-3.08,73.55-10.61a122.2,122.2,0,0,0,12.35-4.5c28.82-12.52,41-35.87,35.1-66.76-4.23-22.24-14.81-41.45-27.93-59.49C906.73,509.54,904.56,506.84,902.45,504.1Z"/><path class="cls-1" d="M896.16,545.39c-11,3.17-21.79,7-32.93,9.37-30.91,6.49-62.15,5.62-93.33,2.3-70.27-7.48-138.16-24-202.08-54.81-25.84-12.44-51.28-25.69-76.93-38.51-49.14-24.56-101.37-35.05-156-32.43q-92,4.41-183.85,10.53c-39,2.58-77.91,6.57-116.86,9.92-.71.06-1.43,0-2.17,0,1-7.67,5.55-12.8,12.5-14,78.93-14.16,157.83-28.44,236.79-42.34q49.11-8.64,98.45-15.89c28.26-4.11,56.46-4.92,83.55,6.87,17,7.39,31.33,18.75,45.82,29.81,25.4,19.4,50.7,38.95,75.57,59,35.15,28.39,74.75,47.2,118.42,58.47,42.66,11,85.77,18.08,129.88,18.08a252.31,252.31,0,0,0,31.68-2.1c10.44-1.34,20.73-3.84,31.08-5.84Z"/><path class="cls-1" d="M623.86,325.84c20.06-.5,42.54,4.83,64,16.89C741.06,372.66,791,407.05,836,448.42c8.91,8.19,7.85,12-3.93,15.51-34.48,10.18-68.62,7.3-102.53-2.87-55-16.48-104.81-43.34-151.69-75.91-13.61-9.46-26.31-20.23-39.22-30.66-4.5-3.64-4.4-6.4.66-9.32a117.67,117.67,0,0,1,21.16-10C579.58,328.71,599.43,325.8,623.86,325.84ZM719.4,442.32a779.07,779.07,0,0,1-149.06-88.14c12-4.07,23.88-7.81,36-10.18s24.39-3.38,36.6-5c-23.8-3.34-69.53,4.83-83.67,14.84C608.2,391.77,660.55,422.87,719.4,442.32Z"/><path class="cls-1" d="M68.5,421.5c21.33-6.4,42.56-13.15,64-19.12,96.09-26.75,192.17-53.53,288.42-79.69a675.7,675.7,0,0,1,70.69-15.09c29.55-4.73,59.46-3.53,89.14-.39,17.56,1.85,35,5.1,52.23,8.59-6.51,0-13,.09-19.55,0-32.39-.52-63.33,4.74-91.37,22.19a12.42,12.42,0,0,1-7.79,1.74c-42.54-6.62-84.79-3.12-126.43,5.61-47.89,10-95.38,22-142.94,33.6C187,393,129.29,407.55,71.48,421.89c-.86.21-1.75.32-2.63.48Z"/><path class="cls-1" d="M801.77,539.14a354.85,354.85,0,0,1-74.83-10.93c-6.73-1.68-13.39-3.7-20.16-5.23-4.53-1-6.27-4-6.78-8.11-.73-5.88,1.84-11.39,6.78-13.86,5.7-2.85,11.32-2.57,16.51,1.31a55.28,55.28,0,0,1,4.19,3.89c-1.61-6.91-8.7-11.2-16.77-10.5-10.33.89-16.24,8.73-16.92,23.17-2-.57-3.82-1-5.57-1.63-7.5-2.89-14.9-6.07-22.48-8.71-4.16-1.45-5.72-4.25-6-8.17-.42-6.32,1.74-11.56,7.19-15,5.92-3.74,12.19-3.92,18.16-.31,2.89,1.75,5.19,4.46,7.38,6.41-1-6.89-8.93-12.47-18.2-12.27-11.78.26-19.08,8.27-21,23.63A279.41,279.41,0,0,1,602,471.07c.07-.5.15-1,.22-1.5,5.31-.54,10.63-1.56,15.94-1.55,13.51,0,27.13-.45,40.48,1.18,10.15,1.23,20.74,3.86,29.77,8.53,37.3,19.28,74.09,39.56,111.06,59.49A26.42,26.42,0,0,1,801.77,539.14Z"/><path class="cls-1" d="M436.62,519.74,56.05,473.93l.26-2.08c127.17,12.49,254.07,27.33,380.48,46.21Z"/><path class="cls-1" d="M1055.71,723.87l-197.58-54,.16-2.22c5.46,0,11.32-1.3,16.34.2,60,17.86,119.87,36.13,179.77,54.31a7.58,7.58,0,0,1,1.42.77Z"/></svg>