<svg id="Layer_1" data-name="Layer 1" xmlns="http://www.w3.org/2000/svg" viewBox="0 0 1080 1080"><defs><style>.cls-1{fill:#5e1;}</style></defs><path class="cls-1" d="M72.8,584C62.4,432.54,109.05,301.74,220.77,197c104-97.52,229.15-135.47,369.82-123.47C558.63,219,626.1,321.7,728,408.76c50,42.71,108.3,71.19,175.15,77.37a235.51,235.51,0,0,0,51.72-1.31c16.31-2.13,32.19-7.63,48.25-11.64,46.59,298.34-209.89,573.57-522.6,531,6-25.58,14.7-51.08,17.36-77.21,5.26-51.65-9.8-100-34.53-144.58C404.6,676.52,320.1,602,199.47,574.42c-38.31-8.76-76.58-6.41-113.64,8-3.07,1.2-6.29,2-9.47,2.94C75.94,585.51,75.34,585,72.8,584Z"/><path class="cls-1" d="M451.71,908.14c-.46,30-4.72,54.27-20.34,75.67-5.35,7.33-10.49,10.22-19.52,7.35Q155,909.68,83.88,649.88c-3.08-11.31,2.6-15,10.59-19.07,30.35-15.28,62.62-16.57,94.86-10.32,122.67,23.78,239.39,144,260.23,267C451,895.75,451.31,904.16,451.71,908.14Z"/><path class="cls-1" d="M642.86,82.77c78,16.7,145.78,52,204.77,103.27C915.76,245.27,963,318.71,989.48,405.45c4.35,14.23.65,20.12-12.09,24.94-36.13,13.67-72.85,13.26-108.33.84-124.32-43.52-206.54-127.4-237.64-257C624.08,143.64,626.55,112.2,642.86,82.77Z"/></svg>